<svg xmlns="http://www.w3.org/2000/svg" style="display: none;">

  <symbol id="icon-search" viewBox="0 0 24 24">
    <path d="M21.53 20.47l-5.4-5.4A7.5 7.5 0 1015 16l5.4 5.4a.75.75 0 001.06-1.06zM4.5 10.5a6 6 0 1112 0 6 6 0 01-12 0z"/>
  </symbol>

  <symbol id="icon-clock" viewBox="0 0 24 24">
    <path d="M12 1.5A10.5 10.5 0 112 12 10.5 10.5 0 0112 1.5zm.75 5.25h-1.5v6l5.25 3.15.75-1.23-4.5-2.67z"/>
  </symbol>

  <symbol id="icon-loader" viewBox="0 0 50 50">
    <path d="M25 5a20 20 0 1020 20" fill="none" stroke="currentColor" stroke-width="4"/>
  </symbol>

  <symbol id="icon-bookmark" viewBox="0 0 24 24">
    <path d="M6 2.25A2.25 2.25 0 003.75 4.5v15.75l8.25-4.5 8.25 4.5V4.5A2.25 2.25 0 0018 2.25z"/>
  </symbol>

  <symbol id="icon-edit" viewBox="0 0 24 24">
    <path d="M3 17.25V21h3.75l11-11-3.75-3.75-11 11zM20.71 7.04a1 1 0 000-1.41l-2.34-2.34a1 1 0 00-1.41 0l-1.83 1.83 3.75 3.75 1.83-1.83z"/>
  </symbol>

  <symbol id="icon-smile" viewBox="0 0 24 24">
    <path d="M12 2a10 10 0 1010 10A10 10 0 0012 2zm4 8a1.5 1.5 0 11-1.5-1.5A1.5 1.5 0 0116 10zm-8 0a1.5 1.5 0 11-1.5-1.5A1.5 1.5 0 018 10zm4 8a6 6 0 01-4.24-1.76l1.06-1.06A4.5 4.5 0 0012 15a4.5 4.5 0 003.18-1.82l1.06 1.06A6 6 0 0112 18z"/>
  </symbol>

</svg>